HIERARCHY
ROOT Hips
{
  OFFSET 0 0 0
  CHANNELS 6 Xposition Yposition Zposition Zrotation Yrotation Xrotation
  JOINT LeftThigh
  {
    OFFSET 8.409438 0 -5.917753
    CHANNELS 3 Zrotation Yrotation Xrotation
    JOINT LeftLeg
    {
      OFFSET 0 0 -42.358652
      CHANNELS 3 Zrotation Yrotation Xrotation
      JOINT LeftFoot
      {
        OFFSET 0 0 -39.357303
        CHANNELS 3 Zrotation Yrotation Xrotation
      }
    }
  }
  JOINT RightThigh
  {
    OFFSET -8.409438 0 -5.917753
    CHANNELS 3 Zrotation Yrotation Xrotation
    JOINT RightLeg
    {
      OFFSET 0 0 -42.358652
      CHANNELS 3 Zrotation Yrotation Xrotation
      JOINT RightFoot
      {
        OFFSET 0 0 -39.357303
        CHANNELS 3 Zrotation Yrotation Xrotation
      }
    }
  }
  JOINT SpineLow
  {
    OFFSET 0 0 4.719101
    CHANNELS 3 Zrotation Yrotation Xrotation
    JOINT SpineMid
    {
      OFFSET 0 0 12.899191
      CHANNELS 3 Zrotation Yrotation Xrotation
      JOINT Chest
      {
        OFFSET 0 0 12.899191
        CHANNELS 3 Zrotation Yrotation Xrotation
        JOINT LeftShoulder
        {
          OFFSET 7.550562 1.41573 9.438202
          CHANNELS 3 Zrotation Yrotation Xrotation
          JOINT LeftArm
          {
            OFFSET 9.155056 0 4.247191
            CHANNELS 3 Zrotation Yrotation Xrotation
            JOINT LeftForearm
            {
              OFFSET 0 0 25.771955
              CHANNELS 3 Zrotation Yrotation Xrotation
              JOINT LeftHand
              {
                OFFSET 0 0 25.197169
                CHANNELS 3 Zrotation Yrotation Xrotation
              }
            }
          }
        }
        JOINT RightShoulder
        {
          OFFSET -7.550562 1.41573 9.438202
          CHANNELS 3 Zrotation Yrotation Xrotation
          JOINT RightArm
          {
            OFFSET -9.155056 0 4.247191
            CHANNELS 3 Zrotation Yrotation Xrotation
            JOINT RightForearm
            {
              OFFSET 0 0 -25.771955
              CHANNELS 3 Zrotation Yrotation Xrotation
              JOINT RightHand
              {
                OFFSET 0 0 -25.197169
                CHANNELS 3 Zrotation Yrotation Xrotation
              }
            }
          }
        }
        JOINT Neck
        {
          OFFSET 0 0 15.101124
          CHANNELS 3 Zrotation Yrotation Xrotation
          JOINT Head
          {
            OFFSET 0 0 11.325843
            CHANNELS 3 Zrotation Yrotation Xrotation
            End Site
            {
              OFFSET 0 0 14.157303
            }
          }
        }
      }
    }
  }
}
MOTION
Frames: 11
Frame Time: 0.0
0.0  93.25843  0.0  -2.174994  -28.828593  -85.823929  7.686548  -15.679309  -8.28051  11.028699  -2.42446  22.273818  11.526142  2.641127  6.248794  3.213713  -2.596088  -19.336936  -7.940916  12.763539  14.399434  6.319768  2.177262  0.227281  4.524916  0.426927  -1.405181  12.340521  1.424057  -3.746316  12.34052  1.424057  -3.746315  -22.068506  15.212947  6.590876  -179.812736  34.469368  -139.35153  11.321255  -23.744276  95.834506  105.6889  9.426711  -0.889005  2.972196  -19.016545  27.925135  83.548038  40.205799  33.799455  -5.328447  -15.916316  -67.98738  71.967953  -6.739543  16.034421  -5.203968  3.918713  19.354192  -4.030582  2.777754  14.544587  
0.0  93.25843  0.0  -2.273602  -34.556876  -85.596282  8.816283  -15.432287  -6.757208  13.913806  -2.633432  21.186222  12.518606  2.687319  6.324958  5.42179  -2.855213  -19.925412  -6.571258  12.129158  13.758261  6.411483  1.776303  0.234631  4.675945  0.412683  -1.492414  12.751908  1.410447  -3.98281  12.751907  1.410446  -3.98281  -19.193812  14.227435  7.390127  -176.642107  32.32474  -139.151453  11.619038  -26.687681  96.341057  105.33375  9.938599  -1.110009  3.074835  -18.051312  28.580255  86.261858  38.727455  35.860997  -3.944329  -23.636209  -73.736117  69.259893  -5.898413  14.060149  -2.811871  4.033038  19.42539  -2.239166  2.938993  14.581929  
0.0  93.25843  0.0  -2.520011  -40.412142  -85.322611  10.245313  -15.237774  -5.191925  16.573454  -2.689324  19.934445  13.573983  2.671998  6.586426  7.627669  -3.345446  -20.361517  -5.264247  11.602834  12.941114  6.487079  1.398914  0.286879  4.845547  0.423349  -1.515615  13.214223  1.454097  -4.039685  13.214224  1.454097  -4.039686  -17.011685  13.011209  7.817486  -172.798833  29.491757  -139.008692  11.568165  -28.258335  97.056771  104.889062  10.907847  -2.525197  2.909666  -17.275297  28.564652  89.354473  36.872994  38.358276  -0.920665  -29.132766  -80.994974  65.571942  -5.351304  12.06119  -0.465255  3.935083  19.153905  -0.472927  2.940156  14.362769  
0.0  93.25843  0.0  -2.905625  -46.242778  -85.000072  12.04082  -15.083016  -3.630658  19.103715  -2.74796  18.787326  14.378317  2.534045  6.890444  9.853961  -3.885596  -20.351018  -4.157768  11.043627  11.754485  6.601548  1.008202  0.366043  5.041001  0.437189  -1.555911  13.746541  1.511765  -4.141506  13.746541  1.511765  -4.141506  -15.564009  12.041501  8.497892  -168.37557  26.336476  -139.054526  11.253155  -28.713689  97.718347  104.369613  12.023175  -5.746887  2.279645  -16.561425  28.478943  91.989769  34.780415  40.864762  2.548085  -30.856196  -88.989097  60.901008  -5.450566  9.316023  1.849135  3.739495  18.873497  1.272106  2.864998  14.13893  
0.0  93.25843  0.0  -3.378614  -51.478419  -84.855348  13.665137  -14.998086  -2.045115  21.345853  -2.860424  18.016489  14.464987  2.590941  7.12589  11.726415  -4.366248  -19.769452  -3.336067  10.442558  10.382124  6.879655  0.857087  0.487111  5.205613  0.466839  -1.592628  14.193708  1.610286  -4.230718  14.193709  1.610286  -4.230718  -14.973376  11.542023  9.585101  -164.061966  24.078183  -139.433912  9.777256  -28.089246  98.234783  103.73006  12.899508  -10.913673  1.211119  -15.813642  28.627601  93.547589  32.922341  42.866758  5.703402  -28.898954  -96.637201  55.826147  -6.020373  6.236902  3.896244  3.38802  18.596701  2.821182  2.662639  13.922541  
0.0  93.25843  0.0  -3.928069  -55.261947  -84.719543  13.549314  -15.498385  -0.837645  23.599089  -2.628816  18.176973  13.093182  2.276091  5.888675  12.857834  -4.707066  -19.095835  -2.789456  9.868032  9.331674  6.67225  0.222669  0.815777  5.046681  0.525919  -1.532104  13.757809  1.748413  -4.058345  13.757809  1.748413  -4.058345  -16.229431  10.843054  8.846784  -159.349372  22.283756  -141.178272  7.339192  -27.291322  98.196138  102.977287  13.472418  -17.951351  1.030731  -14.955642  28.435998  93.709374  31.71696  44.19261  8.193451  -25.726761  -102.977214  52.950162  -6.033568  2.576539  6.266308  3.06633  17.956111  4.613142  2.486744  13.434131  
0.0  93.25843  0.0  -4.216373  -57.515603  -84.422681  13.25033  -15.323618  -0.618583  24.444377  -2.858182  18.442785  13.466107  2.406994  5.960424  12.95487  -4.92984  -18.428997  -2.033568  9.398921  8.241577  6.725517  0.082146  0.826096  4.624246  0.604721  -1.497354  12.600149  1.930853  -3.961351  12.600149  1.930853  -3.961351  -16.185723  10.785624  8.239086  -156.885039  21.840365  -142.567922  5.852055  -26.425651  96.4918  103.207901  13.4882  -25.493322  1.223147  -14.112527  28.413188  92.094083  31.093297  45.000921  9.800071  -23.042283  -109.425701  52.901623  -6.731946  -1.665211  8.670436  2.887083  17.332197  6.425647  2.414137  12.958574  
0.0  93.25843  0.0  -4.520229  -58.944031  -83.869829  13.016883  -15.371269  -1.3254  24.726088  -2.955505  19.02391  14.275359  2.479157  6.300671  14.018727  -4.859098  -17.942617  -2.318042  8.894063  7.200812  6.330901  0.06883  0.986401  4.441193  0.60085  -1.47448  12.100774  1.905435  -3.905615  12.100775  1.905435  -3.905615  -18.433421  11.310485  7.291899  -156.016483  22.002672  -143.993708  5.289688  -26.037776  92.074714  105.332959  13.578617  -28.989505  -0.889925  -12.846734  28.781474  88.684294  30.97596  45.454165  12.401836  -19.682342  -114.356435  53.280494  -4.954301  -7.092382  9.657369  3.013619  16.943534  7.164288  2.531062  12.660893  
0.0  93.25843  0.0  -5.299036  -59.625974  -82.940545  13.7355  -15.950454  -2.31357  24.367761  -2.80857  19.600754  14.908675  2.460362  6.638898  15.643792  -4.807572  -17.591343  -3.458653  8.347527  6.524627  5.847613  0.407423  0.947636  4.009945  0.575985  -1.529322  10.921828  1.821779  -4.072646  10.921829  1.821779  -4.072646  -19.495826  11.610605  6.807101  -155.827856  23.113544  -145.192225  5.522503  -26.310578  85.922444  107.634667  13.908549  -27.156394  -2.210461  -12.032377  29.954132  84.050005  31.590225  45.49169  17.067287  -20.337667  -116.055001  57.487181  -0.34704  -16.084056  11.149337  2.997562  16.755217  8.285274  2.557195  12.513853  
0.0  93.25843  0.0  -5.117602  -59.193534  -83.059006  14.933622  -16.316612  -2.958105  23.59129  -2.527953  20.024394  15.097092  2.409393  6.869958  16.2569  -4.585664  -16.810477  -4.636445  8.123265  5.717953  5.354936  0.848586  0.63451  3.658468  0.605197  -1.488699  9.960871  1.874017  -3.968054  9.960871  1.874017  -3.968054  -21.839633  12.483903  6.078389  -155.971798  25.559825  -145.812476  7.135561  -27.673649  78.530378  107.481209  14.863868  -21.282965  -5.014384  -10.854291  31.340683  79.082641  32.769797  45.184462  21.109169  -17.961905  -120.628045  58.014511  0.763873  -23.165898  11.762175  3.07709  16.498105  8.74398  2.62883  12.316843  
0.0  93.25843  0.0  -4.380338  -57.71671  -83.903383  16.218744  -16.637005  -3.362174  22.609429  -2.284975  20.407855  14.591657  2.324502  6.807484  15.572386  -4.201971  -15.787728  -5.278184  7.982349  4.749389  5.020928  0.723268  0.879515  3.103245  0.786113  -1.43469  8.435522  2.327743  -3.814814  8.435522  2.327743  -3.814814  -23.197514  12.299162  5.753752  -156.992966  28.730975  -146.239217  10.500649  -27.766847  69.639045  105.079872  15.777639  -14.288494  -7.011291  -10.531457  33.038616  74.185558  33.772223  44.540064  24.324961  -17.164716  -124.066874  58.716108  1.070742  -29.27175  12.657601  2.761183  16.131124  9.426285  2.408293  12.045002  
